Coordinates
version=1
nRows=29
nColumns=24
inDegrees=yes

Units are S.I. units (second, meters, Newtons, ...)
Angles are in degrees.

endheader
time	pelvis_tilt	pelvis_list	pelvis_rotation	pelvis_tx	pelvis_ty	pelvis_tz	hip_flexion_r	hip_adduction_r	hip_rotation_r	knee_angle_r	ankle_angle_r	subtalar_angle_r	mtp_angle_r	hip_flexion_l	hip_adduction_l	hip_rotation_l	knee_angle_l	ankle_angle_l	subtalar_angle_l	mtp_angle_l	lumbar_extension	lumbar_bending	lumbar_rotation
      6.25000000	     -2.35751077	     -0.54624519	     -0.41138773	     -1.04291464	      0.67621121	     -0.18592973	      3.59607412	      8.65385499	     11.97974153	    -10.15996194	     17.87552234	     -8.29990361	      0.00000000	     31.11465887	      0.73080441	      4.65506283	    -53.44935017	      3.79026111	    -27.82748303	      0.00000000	    -15.31762391	     -5.90756246	     -1.94663176
      6.26000000	     -2.42969292	     -0.48811998	     -0.94544911	     -1.03532719	      0.67590933	     -0.18604545	      2.96758101	      8.57923864	     12.46925854	    -10.23855538	     18.46358044	     -8.12992180	      0.00000000	     31.28728271	      0.62602054	      5.16354469	    -49.58592549	      3.12526254	    -28.86332335	      0.00000000	    -15.21944252	     -5.96819819	     -0.97189252
      6.27000000	     -2.47928535	     -0.50236659	     -1.47117692	     -1.02756234	      0.67551110	     -0.18615765	      2.26830499	      8.56040682	     12.94140124	    -10.25590549	     19.00792771	     -7.94185441	      0.00000000	     31.25522657	      0.38812827	      5.67555081	    -45.43563830	      2.47729284	    -29.22158923	      0.00000000	    -15.13591062	     -5.94225798	     -0.03842098
      6.28000000	     -2.58178794	     -0.60722026	     -2.00789568	     -1.01967344	      0.67493346	     -0.18622031	      1.59244450	      8.62472558	     13.44669985	    -10.24538260	     19.53595222	     -7.79137580	      0.00000000	     31.12957804	     -0.01825826	      6.15330924	    -41.08020016	      2.01800621	    -28.72368606	      0.00000000	    -14.99713704	     -5.81736642	      0.86698143
      6.29000000	     -2.55179318	     -0.77242448	     -2.51913580	     -1.01163989	      0.67437836	     -0.18633480	      0.71249516	      8.70458022	     13.82814103	    -10.12947683	     20.03111488	     -7.52031422	      0.00000000	     30.68602457	     -0.49691324	      6.66987516	    -36.49268000	      1.47748047	    -27.89558841	      0.00000000	    -15.04177079	     -5.60667329	      1.68083025
      6.30000000	     -2.41603964	     -1.02860981	     -2.98589204	     -1.00347269	      0.67379297	     -0.18650173	     -0.33987529	      8.83119702	     14.03865109	     -9.91663673	     20.54754616	     -7.05409742	      0.00000000	     29.99565239	     -1.06448346	      7.24022407	    -31.79476035	      1.20073183	    -26.59502995	      0.00000000	    -15.24292288	     -5.29086048	      2.40796406
      6.31000000	     -2.25704531	     -1.41788371	     -3.49950155	     -0.99526048	      0.67309057	     -0.18661563	     -1.45531450	      9.07080362	     14.26744499	     -9.67073625	     21.05889197	     -6.53236299	      0.00000000	     29.21774493	     -1.83657466	      7.62507949	    -27.13548600	      1.02479330	    -24.88118496	      0.00000000	    -15.52121115	     -4.82185832	      3.10434354
      6.32000000	     -2.10388743	     -1.85627143	     -3.92051482	     -0.98690456	      0.67224809	     -0.18681406	     -2.58799253	      9.32071501	     14.10613729	     -9.38722004	     21.66915862	     -5.66046431	      0.00000000	     28.45941142	     -2.65906469	      7.75940583	    -22.71618876	      1.62087267	    -22.17213795	      0.00000000	    -15.81774503	     -4.28246292	      3.65807746
      6.33000000	     -1.92221657	     -2.38159418	     -4.40553764	     -0.97846350	      0.67133698	     -0.18699214	     -3.82112007	      9.63106638	     14.08722294	     -9.02736437	     22.15559609	     -4.85380691	      0.00000000	     27.66568312	     -3.58179957	      7.56949619	    -18.56093815	      2.05908600	    -19.80497441	      0.00000000	    -16.17527462	     -3.64260272	      4.26090981
      6.34000000	     -1.70630265	     -2.88341556	     -4.86311729	     -0.96989950	      0.67040085	     -0.18722911	     -5.12526472	      9.88804639	     14.00954209	     -8.62758348	     22.58920911	     -4.10334926	      0.00000000	     26.88238248	     -4.43682821	      6.93588282	    -14.82414710	      2.38956636	    -17.58652490	      0.00000000	    -16.58140587	     -3.01954714	      4.78660787
      6.35000000	     -1.52945786	     -3.36091187	     -5.28936962	     -0.96122871	      0.66940964	     -0.18754155	     -6.39254593	     10.10393790	     13.84302721	     -8.24132525	     22.98195744	     -3.29782893	      0.00000000	     26.25569929	     -5.19981656	      5.68952983	    -11.71575566	      2.76640865	    -15.34884675	      0.00000000	    -16.93108765	     -2.39520049	      5.23579160
      6.36000000	     -1.39293050	     -3.74703763	     -5.67499648	     -0.95245031	      0.66841657	     -0.18796297	     -7.59693415	     10.21553446	     13.58952502	     -7.89473537	     23.32388500	     -2.50659407	      0.00000000	     25.79447765	     -5.76539889	      3.84117424	     -9.31990275	      3.09898365	    -13.28436917	      0.00000000	    -17.20339360	     -1.83787211	      5.61255729
      6.37000000	     -1.32014796	     -4.00856260	     -6.01913308	     -0.94356280	      0.66743702	     -0.18848839	     -8.67285026	     10.20353524	     13.22382691	     -7.64829246	     23.60858614	     -1.76182826	      0.00000000	     25.51965581	     -6.08909801	      1.47802430	     -7.68186285	      3.36728704	    -11.53083015	      0.00000000	    -17.35244521	     -1.39100408	      5.92901639
      6.38000000	     -1.32466501	     -4.13731742	     -6.31344281	     -0.93454450	      0.66646648	     -0.18914555	     -9.60337546	     10.06367776	     12.79798593	     -7.50316403	     23.84523115	     -1.04154538	      0.00000000	     25.41997413	     -6.16794077	     -1.17452884	     -6.78684293	      3.57953891	    -10.19026805	      0.00000000	    -17.35077420	     -1.04982405	      6.15552721
      6.39000000	     -1.42355698	     -4.16740342	     -6.56388523	     -0.92538353	      0.66547193	     -0.18990978	    -10.34457054	      9.84112576	     12.28130774	     -7.50962518	     24.02816321	     -0.38760133	      0.00000000	     25.50544281	     -6.07271057	     -3.93570407	     -6.63359397	      3.82336291	     -9.34428910	      0.00000000	    -17.18716231	     -0.78862710	      6.35350319
      6.40000000	     -1.59920240	     -4.11284092	     -6.82570275	     -0.91604913	      0.66444943	     -0.19071988	    -10.91438554	      9.54951789	     11.88812761	     -7.70465797	     24.18967801	      0.02149285	      0.00000000	     25.62848489	     -5.85637354	     -6.39957771	     -6.96911751	      3.91364664	     -9.32391861	      0.00000000	    -16.88072586	     -0.62101287	      6.58264579
      6.41000000	     -1.81551365	     -4.03519081	     -7.02718376	     -0.90650757	      0.66343784	     -0.19162630	    -11.36114108	      9.24657456	     11.38627721	     -8.05281433	     24.19867533	      0.47618720	      0.00000000	     25.76971288	     -5.59508634	     -8.54478713	     -7.74152231	      3.95179929	     -9.41046264	      0.00000000	    -16.49155515	     -0.47431691	      6.82161401
      6.42000000	     -2.02215591	     -3.94435122	     -7.17002983	     -0.89675895	      0.66250267	     -0.19261464	    -11.75413971	      8.94255393	     10.94417107	     -8.53213526	     23.82801922	      0.67375859	      0.00000000	     25.76801916	     -5.27451417	     -9.91018626	     -8.62407985	      3.65975751	     -9.89858393	      0.00000000	    -16.09080222	     -0.36509593	      7.04267158
      6.43000000	     -2.24450110	     -3.78220165	     -7.33049123	     -0.88682128	      0.66167624	     -0.19365620	    -11.93981757	      8.55405561	     10.26304318	     -9.39253444	     23.85306810	      1.47662298	      0.00000000	     25.62949706	     -4.87102141	    -10.60946300	     -9.41719915	      3.06578715	    -10.54993010	      0.00000000	    -15.64419562	     -0.36727027	      7.26472683
      6.44000000	     -2.43024555	     -3.49640613	     -7.39444557	     -0.87674573	      0.66108046	     -0.19481316	    -12.05794107	      8.05695478	      9.70971530	    -10.41220396	     23.49863816	      1.81318799	      0.00000000	     25.30568299	     -4.24424989	    -10.23492557	     -9.91122148	      1.68869078	    -11.78046039	      0.00000000	    -15.23123582	     -0.54913803	      7.38187642
      6.45000000	     -2.56319761	     -3.11740180	     -7.30781771	     -0.86658907	      0.66079671	     -0.19613723	    -12.06013592	      7.48123938	      9.01927076	    -11.70065530	     22.88439654	      2.14950346	      0.00000000	     24.86369906	     -3.42082833	     -8.86315407	    -10.16503100	     -0.17830358	    -13.31752825	      0.00000000	    -14.88844531	     -0.86045045	      7.24268165
      6.46000000	     -2.62747818	     -2.68345340	     -7.14489491	     -0.85643079	      0.66089997	     -0.19753373	    -11.92778025	      6.84900914	      8.24558356	    -13.31873428	     21.89552900	      2.57971882	      0.00000000	     24.36577977	     -2.50958124	     -6.91432534	    -10.34555482	     -2.28180580	    -15.16226931	      0.00000000	    -14.66343656	     -1.28937996	      7.03999877
      6.47000000	     -2.63887562	     -2.16761338	     -6.81640598	     -0.84628139	      0.66134547	     -0.19903502	    -11.61381863	      6.16127789	      7.36444567	    -15.30865839	     20.64091774	      2.99988800	      0.00000000	     23.89038051	     -1.47758279	     -4.65720971	    -10.63401838	     -4.08268787	    -16.93026869	      0.00000000	    -14.53722926	     -1.85168982	      6.63476296
      6.48000000	     -2.60328659	     -1.63170254	     -6.38253385	     -0.83619750	      0.66210458	     -0.20057858	    -11.08287405	      5.46436082	      6.42758647	    -17.71694716	     18.98624970	      3.45011193	      0.00000000	     23.45283278	     -0.43124313	     -2.55728958	    -11.15136135	     -5.22428826	    -18.46244193	      0.00000000	    -14.51988833	     -2.48099822	      6.12425485
      6.49000000	     -2.51452828	     -1.07858262	     -5.87575806	     -0.82623369	      0.66314431	     -0.20206453	    -10.33912830	      4.77048489	      5.58791483	    -20.51733679	     16.76371552	      3.67086815	      0.00000000	     23.07301811	      0.55883515	     -1.28148312	    -11.99593660	     -5.10565402	    -18.74117847	      0.00000000	    -14.62861237	     -3.18616948	      5.51521324
      6.50000000	     -2.48368487	     -0.62340537	     -5.34057174	     -0.81646535	      0.66427550	     -0.20361852	     -9.20466987	      4.14534207	      4.68122250	    -23.79511204	     14.19687760	      4.33445242	      0.00000000	     22.65962568	      1.46542646	     -0.00994525	    -12.79087668	     -4.73244756	    -19.58617569	      0.00000000	    -14.73182496	     -3.75751928	      4.96360530
      6.51000000	     -2.34723191	     -0.10397849	     -4.84707851	     -0.80690498	      0.66562754	     -0.20504422	     -7.88008852	      3.43888012	      3.98802740	    -27.43953470	     11.06140097	      4.80806723	      0.00000000	     22.01617867	      2.34112239	      0.50564273	    -13.40238623	     -3.87352021	    -19.62282410	      0.00000000	    -15.00645309	     -4.44594088	      4.41708681
      6.52000000	     -2.44532653	      0.33256077	     -4.36627747	     -0.79770429	      0.66678913	     -0.20636057	     -5.97856523	      2.84528807	      3.45590211	    -31.47901738	      7.61108117	      5.32244805	      0.00000000	     21.61002519	      2.98946656	      0.22381606	    -14.00913455	     -2.09178145	    -18.28442945	      0.00000000	    -15.05643616	     -5.00751755	      3.85992209
      6.53000000	     -2.43653922	      0.85853198	     -3.98990334	     -0.78879668	      0.66800534	     -0.20755117	     -3.89804115	      2.13142822	      3.10686006	    -35.80690087	      4.03573547	      5.79053580	      0.00000000	     20.91429172	      3.62664264	     -0.59589604	    -14.22584846	     -0.34907855	    -16.49023339	      0.00000000	    -15.26345892	     -5.67154691	      3.38562607
